<svg xmlns="http://www.w3.org/2000/svg" viewBox="0 0 294.19 262.91"><defs><style>.cls-1,.cls-4{fill:#231f20;}.cls-1,.cls-10{opacity:0.1;}.cls-2{fill:#27aae1;}.cls-3{opacity:0.2;}.cls-5{fill:#f1f2f2;}.cls-6{fill:#e6e7e8;}.cls-7{fill:#fff;}.cls-12,.cls-13,.cls-8{fill:#414042;}.cls-9{fill:#b2875d;}.cls-11{fill:#c49a6c;}.cls-12{font-size:64.14px;font-family:Montserrat-Black, Montserrat Black;}.cls-13{font-size:13.47px;font-family:Montserrat-Light, Montserrat Light;}.cls-14{letter-spacing:-0.05em;}.cls-15{letter-spacing:-0.01em;}.cls-16{letter-spacing:-0.01em;}.cls-17{letter-spacing:-0.01em;}.cls-18{letter-spacing:0em;}</style></defs><title>Asset 1</title><g id="Layer_2" data-name="Layer 2"><g id="BACKGROUND_1" data-name="BACKGROUND 1"><path class="cls-1" d="M294.19,257.12c0,6.6-65.85,5.75-147.09,5.75S0,263.72,0,257.12s65.86-11.94,147.1-11.94S294.19,250.52,294.19,257.12Z"/><path class="cls-2" d="M198.76,94.76a53.54,53.54,0,1,1-53.53-53.53A53.53,53.53,0,0,1,198.76,94.76Z"/><path class="cls-2" d="M180.83,50.75A50.75,50.75,0,1,1,130.08,0,50.75,50.75,0,0,1,180.83,50.75Z"/><path class="cls-2" d="M209.67,47.47a28.06,28.06,0,1,1-28.06-28.06A28.05,28.05,0,0,1,209.67,47.47Z"/><path class="cls-2" d="M163,87.54a51.79,51.79,0,1,1-51.79-51.78A51.79,51.79,0,0,1,163,87.54Z"/><path class="cls-2" d="M236.66,91.34a47.8,47.8,0,1,1-47.79-47.8A47.78,47.78,0,0,1,236.66,91.34Z"/><g class="cls-3"><polygon class="cls-4" points="172.1 33.91 172.13 33.89 108.1 33.89 108.1 133.89 201.25 134.34 189.53 51.45 172.1 33.91"/></g><polygon class="cls-5" points="169.03 32.91 169.06 32.89 105.1 32.89 105.1 132.89 188.1 132.89 188.1 51.99 169.03 32.91"/><rect class="cls-6" x="109.1" y="40.89" width="64" height="1"/><rect class="cls-6" x="109.1" y="50.89" width="74" height="1"/><rect class="cls-6" x="109.1" y="60.89" width="74" height="1"/><rect class="cls-6" x="109.1" y="69.89" width="74" height="1"/><rect class="cls-6" x="109.1" y="79.89" width="74" height="1"/><rect class="cls-6" x="109.1" y="89.89" width="74" height="1"/><rect class="cls-6" x="109.1" y="99.89" width="74" height="1"/><rect class="cls-6" x="109.1" y="109.89" width="74" height="1"/><rect class="cls-6" x="109.1" y="119.89" width="74" height="1"/><rect class="cls-6" x="109.1" y="129.89" width="74" height="1"/><polygon class="cls-7" points="188.25 51.89 169.1 51.89 169.1 32.74 188.25 51.89"/><path class="cls-7" d="M139.53,68.52A11.73,11.73,0,1,1,127.8,56.8,11.73,11.73,0,0,1,139.53,68.52Z"/><path class="cls-8" d="M136.49,68.52a8.69,8.69,0,1,1-8.69-8.69A8.69,8.69,0,0,1,136.49,68.52Z"/><path class="cls-7" d="M128.14,62.52a3,3,0,1,1-3-3A3,3,0,0,1,128.14,62.52Z"/><path class="cls-7" d="M123.67,68.71a1.48,1.48,0,1,1-1.47-1.47A1.47,1.47,0,0,1,123.67,68.71Z"/><path class="cls-7" d="M127.7,72.71a2.25,2.25,0,1,1-2.25-2.25A2.25,2.25,0,0,1,127.7,72.71Z"/><path class="cls-7" d="M135.3,69.94c-2.59.4-2.92.73-3.32,3.32-.4-2.59-.73-2.92-3.33-3.32,2.6-.41,2.93-.73,3.33-3.33C132.38,69.21,132.71,69.53,135.3,69.94Z"/><path class="cls-7" d="M177.16,68.52A11.73,11.73,0,1,1,165.43,56.8,11.73,11.73,0,0,1,177.16,68.52Z"/><path class="cls-8" d="M174.13,68.52a8.7,8.7,0,1,1-8.7-8.69A8.69,8.69,0,0,1,174.13,68.52Z"/><path class="cls-7" d="M165.77,62.52a3,3,0,1,1-3-3A3,3,0,0,1,165.77,62.52Z"/><path class="cls-7" d="M161.3,68.71a1.47,1.47,0,1,1-1.47-1.47A1.47,1.47,0,0,1,161.3,68.71Z"/><path class="cls-7" d="M165.34,72.71a2.25,2.25,0,1,1-2.25-2.25A2.25,2.25,0,0,1,165.34,72.71Z"/><path class="cls-7" d="M172.94,69.94c-2.6.4-2.93.73-3.33,3.32-.4-2.59-.73-2.92-3.32-3.32,2.59-.41,2.92-.73,3.32-3.33C170,69.21,170.34,69.53,172.94,69.94Z"/><path class="cls-8" d="M162,102a1.75,1.75,0,0,1-1.74-1.75,13.6,13.6,0,0,0-27.2,0,1.75,1.75,0,0,1-3.5,0,17.1,17.1,0,1,1,34.19,0A1.75,1.75,0,0,1,162,102Z"/><polygon class="cls-9" points="244.1 255.89 48.1 255.89 48.11 104.89 244.1 104.89 244.1 255.89"/><g class="cls-10"><rect class="cls-7" x="48.1" y="167.89" width="20" height="11"/></g><g class="cls-10"><rect class="cls-7" x="48.1" y="193.89" width="20" height="11"/></g><g class="cls-10"><rect class="cls-7" x="48.1" y="218.89" width="20" height="11"/></g><g class="cls-10"><rect class="cls-7" x="224.1" y="167.89" width="20" height="11"/></g><g class="cls-10"><rect class="cls-7" x="224.1" y="193.89" width="20" height="11"/></g><g class="cls-10"><rect class="cls-7" x="224.1" y="218.89" width="20" height="11"/></g><polygon class="cls-11" points="282.38 145.4 241.97 107.45 244.38 104.9 284.78 142.86 282.38 145.4"/><polygon class="cls-11" points="9.92 145.4 50.33 107.45 47.92 104.9 7.52 142.86 9.92 145.4"/><polygon class="cls-11" points="256.73 154.89 35.56 154.89 48.59 104.89 243.71 104.89 256.73 154.89"/><text class="cls-12" transform="translate(80.24 213.43)">404</text><text class="cls-13" transform="translate(86.36 234.7)"><tspan class="cls-14">P</tspan><tspan class="cls-15" x="9.03" y="0">A</tspan><tspan x="18.39" y="0">GE N</tspan><tspan class="cls-16" x="52.25" y="0">O</tspan><tspan x="63.4" y="0">T </tspan><tspan class="cls-17" x="74.45" y="0">F</tspan><tspan class="cls-18" x="82.83" y="0">OUND</tspan></text></g></g></svg>