<svg width="500" height="751" viewBox="0 0 500 751" fill="none" xmlns="http://www.w3.org/2000/svg">
<rect width="500" height="751" fill="#E9E9E9"/>
<path fill-rule="evenodd" clip-rule="evenodd" d="M355.268 350.916H188.681L348.69 304.564C349.934 304.203 350.983 303.362 351.608 302.229C352.234 301.094 352.383 299.759 352.022 298.515L343.649 269.609C340.303 258.064 329.554 250 317.507 250C314.968 250 312.439 250.36 309.986 251.07L159.754 294.59C152.805 296.602 147.047 301.222 143.536 307.594C140.026 313.967 139.202 321.304 141.214 328.251L149.395 356.491V472.826C149.395 487.81 161.585 500 176.567 500H235.241C237.938 500 240.124 497.814 240.124 495.117C240.124 492.42 237.938 490.234 235.241 490.234H176.569C166.969 490.234 159.161 482.426 159.161 472.826V406.378H184.175H184.187H184.196H222.435H222.446H222.458H260.696H260.708H260.719H298.958H298.969H298.979H350.386V472.826C350.386 482.426 342.577 490.234 332.977 490.234H274.303C271.608 490.234 269.421 492.42 269.421 495.117C269.421 497.814 271.608 500 274.303 500H332.977C347.961 500 360.151 487.81 360.151 472.826V355.799C360.151 353.102 357.965 350.916 355.268 350.916V350.916ZM269.169 396.612L289.915 360.682H316.898L296.154 396.612H269.169ZM230.907 396.612L251.654 360.682H278.637L257.893 396.612H230.907ZM192.648 396.612L213.392 360.682H240.377L219.631 396.612H192.648ZM210.802 333.401L176.062 300.034L202.091 292.494C202.274 292.761 202.488 293.013 202.732 293.247L237.473 326.614L211.443 334.154C211.26 333.887 211.044 333.633 210.802 333.401ZM276.232 271.955L310.972 305.323L284.943 312.862C284.76 312.595 284.546 312.342 284.302 312.109L249.561 278.742L275.591 271.202C275.774 271.469 275.988 271.721 276.232 271.955ZM239.481 282.602L274.221 315.968L248.192 323.509C248.009 323.242 247.795 322.989 247.551 322.756L212.811 289.389L238.84 281.849C239.025 282.114 239.239 282.368 239.481 282.602ZM312.704 260.45C314.272 259.996 315.887 259.766 317.507 259.766C325.233 259.766 332.125 264.931 334.269 272.327L341.284 296.541L321.693 302.216C321.508 301.949 321.295 301.697 321.051 301.462L286.312 268.097L312.704 260.45ZM152.09 312.305C154.341 308.218 158.028 305.258 162.472 303.97L165.34 303.139C165.525 303.406 165.739 303.659 165.981 303.892L200.722 337.259L157.61 349.749L150.595 325.535C149.307 321.093 149.839 316.395 152.09 312.305ZM159.161 360.682H202.116L181.372 396.612H159.161V360.682ZM307.43 396.612L328.175 360.682H350.386V396.612H307.43Z" fill="#2F2F2F"/>
<path fill-rule="evenodd" clip-rule="evenodd" d="M288.536 447.809C288.536 446.064 287.605 444.452 286.095 443.581L243.196 418.814C241.686 417.942 239.824 417.942 238.314 418.814C236.803 419.685 235.872 421.297 235.872 423.042V472.576C235.872 474.319 236.803 475.931 238.314 476.803C239.069 477.24 239.912 477.459 240.755 477.459C241.598 477.459 242.441 477.24 243.196 476.803L286.095 452.038C287.605 451.166 288.536 449.554 288.536 447.809ZM245.638 464.119V431.499L273.888 447.809L245.638 464.119Z" fill="#2F2F2F"/>
<path fill-rule="evenodd" clip-rule="evenodd" d="M254.772 490.234C252.083 490.234 249.889 492.428 249.889 495.117C249.889 497.807 252.083 500 254.772 500C257.463 500 259.655 497.807 259.655 495.117C259.655 492.428 257.463 490.234 254.772 490.234Z" fill="#2F2F2F"/>
</svg>
